<?xml version="1.0" encoding="UTF-8" standalone="no"?>
<!DOCTYPE svg PUBLIC "-//W3C//DTD SVG 1.1//EN" "http://www.w3.org/Graphics/SVG/1.1/DTD/svg11.dtd">
<svg width="100%" height="100%" viewBox="0 0 1182 709" version="1.1" xmlns="http://www.w3.org/2000/svg" xmlns:xlink="http://www.w3.org/1999/xlink" xml:space="preserve" xmlns:serif="http://www.serif.com/" style="fill-rule:evenodd;clip-rule:evenodd;stroke-linejoin:round;stroke-miterlimit:1.5;">
    <g transform="matrix(1,0,0,1,-944.882,-1181.1)">
        <g transform="matrix(1.59312,0,0,1.63105,655.097,696.419)">
            <path d="M923.277,330.61L923.277,698.196C923.277,716.656 907.933,731.644 889.033,731.644L216.143,731.644C197.243,731.644 181.898,716.656 181.898,698.196L181.898,330.61C181.898,312.149 197.243,297.161 216.143,297.161L889.033,297.161C907.933,297.161 923.277,312.149 923.277,330.61Z" style="fill:rgb(179,205,200);"/>
        </g>
        <g transform="matrix(1.9,0,0,1.96333,-1562.91,645.959)">
            <g transform="matrix(0.955691,0,0,0.942479,1197.06,246.289)">
                <g transform="matrix(0.550717,-0,-0,0.540423,128.528,27.8835)">
                    <path d="M768.086,218.43L814.961,234.055L768.086,249.68L768.086,218.43Z"/>
                    <path d="M366.142,234.055L777.461,234.055" style="fill:none;stroke:black;stroke-width:10.42px;"/>
                </g>
            </g>
            <g transform="matrix(0.464572,0.464572,-0.656168,0.656168,1519.12,27.3028)">
                <g transform="matrix(0.566452,-0.401053,0.54818,0.388115,49.5464,338.707)">
                    <path d="M489.575,223.189C483.578,216.992 473.677,216.83 467.48,222.827C461.284,228.824 461.121,238.724 467.118,244.921C473.115,251.118 483.015,251.28 489.212,245.283C495.409,239.286 495.572,229.386 489.575,223.189Z"/>
                    <path d="M478.346,234.055C504.528,261.109 590.551,350 590.551,350" style="fill:none;stroke:black;stroke-width:10.42px;stroke-linecap:round;"/>
                </g>
            </g>
            <g transform="matrix(-0.708661,-0.708661,0.590551,-0.590551,1837.4,834.696)">
                <g transform="matrix(-0.371345,0.445614,-0.359366,-0.431239,761.743,37.7759)">
                    <path d="M467.118,223.189C461.121,229.386 461.284,239.286 467.48,245.283C473.677,251.28 483.578,251.118 489.575,244.921C495.572,238.724 495.409,228.824 489.212,222.827C483.015,216.83 473.115,216.992 467.118,223.189Z"/>
                    <path d="M478.346,234.055L590.551,118.11" style="fill:none;stroke:black;stroke-width:10.42px;stroke-linecap:round;"/>
                </g>
            </g>
            <g transform="matrix(-0.708661,-0.708661,0.590551,-0.590551,1896.46,893.751)">
                <g transform="matrix(-0.371345,0.445614,-0.359366,-0.431239,845.076,37.7759)">
                    <path d="M691.528,223.189C697.525,216.992 707.425,216.83 713.622,222.827C719.819,228.824 719.981,238.724 713.984,244.921C707.987,251.118 698.087,251.28 691.89,245.283C685.693,239.286 685.531,229.386 691.528,223.189Z"/>
                    <path d="M590.551,350L702.756,234.055" style="fill:none;stroke:black;stroke-width:10.42px;stroke-linecap:round;"/>
                </g>
            </g>
            <g transform="matrix(0.464572,0.464572,-0.656168,0.656168,1578.18,-31.7524)">
                <g transform="matrix(0.566452,-0.401053,0.54818,0.388115,49.5464,428.707)">
                    <path d="M713.984,223.189C719.981,229.386 719.819,239.286 713.622,245.283C707.425,251.28 697.525,251.118 691.528,244.921C685.531,238.724 685.693,228.824 691.89,222.827C698.087,216.83 707.987,216.992 713.984,223.189Z"/>
                    <path d="M590.551,118.11C616.732,145.164 702.756,234.055 702.756,234.055" style="fill:none;stroke:black;stroke-width:10.42px;stroke-linecap:round;"/>
                </g>
            </g>
        </g>
        <g transform="matrix(0.463345,0,0,0.463345,1258.91,1293.56)">
            <g transform="matrix(323.733,0,0,323.733,186.897,976.552)">
                <path d="M0.15,-0L0.15,-0.36C0.15,-0.436 0.215,-0.473 0.285,-0.473C0.369,-0.473 0.413,-0.423 0.413,-0.319L0.413,-0L0.47,-0L0.47,-0.359C0.47,-0.435 0.533,-0.473 0.604,-0.473C0.69,-0.473 0.733,-0.422 0.733,-0.319L0.733,-0L0.79,-0L0.79,-0.329C0.79,-0.454 0.729,-0.524 0.62,-0.524C0.529,-0.524 0.478,-0.476 0.459,-0.416L0.456,-0.416C0.431,-0.49 0.371,-0.524 0.298,-0.524C0.214,-0.524 0.174,-0.481 0.153,-0.431L0.15,-0.431L0.15,-0.512L0.093,-0.512L0.093,-0L0.15,-0Z" style="fill:rgb(35,31,32);fill-rule:nonzero;"/>
            </g>
            <g transform="matrix(323.733,0,0,323.733,493.407,976.552)">
                <path d="M0.093,-0L0.15,-0L0.15,-0.082L0.153,-0.082C0.181,-0.025 0.231,0.012 0.309,0.012C0.44,0.012 0.52,-0.087 0.52,-0.256C0.52,-0.425 0.44,-0.524 0.309,-0.524C0.231,-0.524 0.178,-0.487 0.153,-0.43L0.15,-0.43L0.15,-0.74L0.093,-0.74L0.093,-0ZM0.296,-0.039C0.217,-0.039 0.15,-0.084 0.15,-0.156L0.15,-0.359C0.15,-0.426 0.217,-0.473 0.296,-0.473C0.398,-0.473 0.459,-0.402 0.459,-0.292L0.459,-0.22C0.459,-0.11 0.398,-0.039 0.296,-0.039Z" style="fill:rgb(35,31,32);fill-rule:nonzero;"/>
            </g>
            <g transform="matrix(323.733,0,0,323.733,702.15,976.552)">
                <path d="M0.15,-0L0.15,-0.35C0.15,-0.416 0.211,-0.456 0.296,-0.456L0.341,-0.456L0.341,-0.512L0.307,-0.512C0.219,-0.512 0.174,-0.468 0.154,-0.42L0.15,-0.42L0.15,-0.512L0.093,-0.512L0.093,-0L0.15,-0Z" style="fill:rgb(35,31,32);fill-rule:nonzero;"/>
            </g>
            <g transform="matrix(323.733,0,0,323.733,840.643,976.552)">
                <path d="M0.238,0.012C0.351,0.012 0.42,-0.045 0.42,-0.14C0.42,-0.222 0.371,-0.267 0.267,-0.283L0.226,-0.289C0.153,-0.301 0.116,-0.324 0.116,-0.383C0.116,-0.441 0.159,-0.475 0.232,-0.475C0.303,-0.475 0.345,-0.442 0.372,-0.41L0.41,-0.445C0.372,-0.491 0.32,-0.524 0.235,-0.524C0.136,-0.524 0.061,-0.476 0.061,-0.38C0.061,-0.288 0.125,-0.251 0.218,-0.237L0.26,-0.23C0.334,-0.219 0.365,-0.188 0.365,-0.134C0.365,-0.072 0.32,-0.037 0.242,-0.037C0.174,-0.037 0.125,-0.064 0.083,-0.119L0.041,-0.086C0.087,-0.023 0.149,0.012 0.238,0.012Z" style="fill:rgb(35,31,32);fill-rule:nonzero;"/>
            </g>
        </g>
        <g transform="matrix(2.69291,0,0,2.3189,188.976,951.378)">
            <g transform="matrix(0.371345,-0,-0,0.431239,280.702,99.0662)">
                <path d="M606.176,118.11C606.176,109.487 599.175,102.485 590.551,102.485C581.928,102.485 574.926,109.487 574.926,118.11C574.926,126.734 581.928,133.735 590.551,133.735C599.175,133.735 606.176,126.734 606.176,118.11Z"/>
                <path d="M606.176,350C606.176,358.624 599.175,365.625 590.551,365.625C581.928,365.625 574.926,358.624 574.926,350C574.926,341.376 581.928,334.375 590.551,334.375C599.175,334.375 606.176,341.376 606.176,350Z"/>
                <path d="M590.551,118.11L590.551,350" style="fill:none;stroke:black;stroke-width:10.42px;stroke-linecap:round;"/>
            </g>
        </g>
    </g>
</svg>
