<svg width="991" height="464" xmlns="http://www.w3.org/2000/svg" xmlns:xlink="http://www.w3.org/1999/xlink" xml:space="preserve" overflow="hidden"><g transform="translate(7 -141)"><rect x="446.5" y="179.5" width="191" height="73.0002" stroke="#161616" stroke-width="4.58333" stroke-miterlimit="8" fill="#DEEBF7"/><text fill="#161616" font-family="Segoe UI,Segoe UI_MSFontService,sans-serif" font-weight="400" font-size="28" transform="matrix(1 0 0 1 502.517 226)">Metric</text><path d="M214.5 421.781 331.992 421.781 331.992 467.261 330.274 465.542 427.714 465.542 427.714 468.98 328.555 468.98 328.555 423.5 330.274 425.219 214.5 425.219ZM427.714 467.261 418.547 453.511 446.047 467.261 418.547 481.011Z"/><text font-family="Segoe UI,Segoe UI_MSFontService,sans-serif" font-weight="400" font-size="28" transform="matrix(1 0 0 1 9.78433 430)">Hypotheses</text><path d="M214.5 454.5 165.5 454.5 165.5 410.594 182.594 393.5 214.5 393.5Z" fill="#FFFFFF" fill-rule="evenodd"/><path d="M182.594 393.5 179.175 407.175 165.5 410.594Z" fill="#CDCDCD" fill-rule="evenodd"/><path d="M182.594 393.5 179.175 407.175 165.5 410.594 182.594 393.5 214.5 393.5 214.5 454.5 165.5 454.5 165.5 410.594" stroke="#161616" stroke-width="4.58333" stroke-miterlimit="8" fill="none" fill-rule="evenodd"/><path d="M214.5 545.5 165.5 545.5 165.5 501.594 182.594 484.5 214.5 484.5Z" fill="#FFFFFF" fill-rule="evenodd"/><path d="M182.594 484.5 179.175 498.175 165.5 501.594Z" fill="#CDCDCD" fill-rule="evenodd"/><path d="M182.594 484.5 179.175 498.175 165.5 501.594 182.594 484.5 214.5 484.5 214.5 545.5 165.5 545.5 165.5 501.594" stroke="#161616" stroke-width="4.58333" stroke-miterlimit="8" fill="none" fill-rule="evenodd"/><text font-family="Segoe UI,Segoe UI_MSFontService,sans-serif" font-weight="400" font-size="28" transform="matrix(1 0 0 1 32.1896 511)">Pseudo</text><text font-family="Segoe UI,Segoe UI_MSFontService,sans-serif" font-weight="400" font-size="28" transform="matrix(1 0 0 1 120.992 511)">-</text><text font-family="Segoe UI,Segoe UI_MSFontService,sans-serif" font-weight="400" font-size="28" transform="matrix(1 0 0 1 19.5854 544)">references</text><path d="M0-1.71875 117.492-1.71875 117.492 47.7594 115.774 46.0407 213.214 46.0407 213.214 49.4782 114.055 49.4782 114.055 0 115.774 1.71875 0 1.71875ZM213.214 47.7594 204.047 34.0094 231.547 47.7594 204.047 61.5094Z" transform="matrix(1 0 0 -1 214.5 515.259)"/><text font-family="Segoe UI,Segoe UI_MSFontService,sans-serif" font-weight="400" font-size="28" transform="matrix(1 0 0 1 876.084 415)">N</text><text font-family="Segoe UI,Segoe UI_MSFontService,sans-serif" font-weight="400" font-size="28" transform="matrix(1 0 0 1 896.709 415)">-</text><text font-family="Segoe UI,Segoe UI_MSFontService,sans-serif" font-weight="400" font-size="28" transform="matrix(1 0 0 1 907.595 415)">best</text><path d="M946.5 498.5 897.5 498.5 897.5 454.594 914.594 437.5 946.5 437.5Z" fill="#FFFFFF" fill-rule="evenodd"/><path d="M914.594 437.5 911.175 451.175 897.5 454.594Z" fill="#CDCDCD" fill-rule="evenodd"/><path d="M914.594 437.5 911.175 451.175 897.5 454.594 914.594 437.5 946.5 437.5 946.5 498.5 897.5 498.5 897.5 454.594" stroke="#161616" stroke-width="4.58333" stroke-miterlimit="8" fill="none" fill-rule="evenodd"/><path d="M446 443C446 436.373 451.372 431 458 431L625 431C631.627 431 637 436.373 637 443L637 491C637 497.627 631.627 503 625 503L458 503C451.372 503 446 497.627 446 491Z" fill="#E2F0D9" fill-rule="evenodd"/><text fill="#161616" font-family="Consolas,Consolas_MSFontService,sans-serif" font-weight="400" font-size="28" transform="matrix(1 0 0 1 474.158 477)">.decode()</text><path d="M446 296C446 289.373 451.372 284 458 284L625 284C631.627 284 637 289.373 637 296L637 344C637 350.627 631.627 356 625 356L458 356C451.372 356 446 350.627 446 344Z" fill="#DEEBF7" fill-rule="evenodd"/><text fill="#161616" font-family="Consolas,Consolas_MSFontService,sans-serif" font-weight="400" font-size="28" transform="matrix(1 0 0 1 466.71 313)">.</text><text fill="#161616" font-family="Consolas,Consolas_MSFontService,sans-serif" font-weight="400" font-size="28" transform="matrix(1 0 0 1 481.605 313)">expected_</text><text fill="#161616" font-family="Consolas,Consolas_MSFontService,sans-serif" font-weight="400" font-size="28" transform="matrix(1 0 0 1 481.605 346)">scores</text><text fill="#161616" font-family="Consolas,Consolas_MSFontService,sans-serif" font-weight="400" font-size="28" transform="matrix(1 0 0 1 570.98 346)">()</text><rect x="446.5" y="530.5" width="191" height="72.0002" stroke="#161616" stroke-width="4.58333" stroke-miterlimit="8" fill="#E2F0D9"/><text fill="#161616" font-family="Segoe UI,Segoe UI_MSFontService,sans-serif" font-weight="400" font-size="28" transform="matrix(1 0 0 1 489.913 576)">Decoder</text><path d="M541.5 252.5 541.5 284.915" stroke="#000000" stroke-width="3.4375" stroke-miterlimit="8" fill="none" fill-rule="evenodd"/><path d="M0 0 0.000360892 26.6934" stroke="#000000" stroke-width="3.4375" stroke-miterlimit="8" fill="none" fill-rule="evenodd" transform="matrix(-1 0 0 1 541.5 503.5)"/><path d="M2.3842e-06-1.71875 241.832-1.71841 241.832 1.71909-2.3842e-06 1.71875ZM241.831 0.000335461 232.665-13.7497 260.165 0.000360892 232.665 13.7503Z" transform="matrix(1 0 0 -1 637.5 467.5)"/><path d="M38.0002 296C38.0002 289.373 43.3728 284 50.0003 284L217 284C223.627 284 229 289.373 229 296L229 344C229 350.627 223.627 356 217 356L50.0003 356C43.3728 356 38.0002 350.627 38.0002 344Z" fill="#DEEBF7" fill-rule="evenodd"/><text fill="#161616" font-family="Consolas,Consolas_MSFontService,sans-serif" font-weight="400" font-size="28" transform="matrix(1 0 0 1 59.4458 313)">.</text><text fill="#161616" font-family="Consolas,Consolas_MSFontService,sans-serif" font-weight="400" font-size="28" transform="matrix(1 0 0 1 74.3417 313)">pairwise_</text><text fill="#161616" font-family="Consolas,Consolas_MSFontService,sans-serif" font-weight="400" font-size="28" transform="matrix(1 0 0 1 74.3417 346)">scores</text><text fill="#161616" font-family="Consolas,Consolas_MSFontService,sans-serif" font-weight="400" font-size="28" transform="matrix(1 0 0 1 163.717 346)">()</text><path d="M229.5 318.781 239.813 318.781 239.813 322.219 229.5 322.219ZM243.25 318.781 253.563 318.781 253.563 322.219 243.25 322.219ZM257 318.781 267.313 318.781 267.313 322.219 257 322.219ZM270.75 318.781 281.063 318.781 281.063 322.219 270.75 322.219ZM284.5 318.781 294.813 318.781 294.813 322.219 284.5 322.219ZM298.25 318.781 308.563 318.781 308.563 322.219 298.25 322.219ZM312 318.781 322.313 318.781 322.313 322.219 312 322.219ZM325.75 318.781 336.063 318.781 336.063 322.219 325.75 322.219ZM339.5 318.781 349.813 318.781 349.813 322.219 339.5 322.219ZM353.25 318.781 363.563 318.781 363.563 322.219 353.25 322.219ZM367 318.781 377.313 318.781 377.313 322.219 367 322.219ZM380.75 318.781 391.063 318.781 391.063 322.219 380.75 322.219ZM394.5 318.781 404.813 318.781 404.813 322.219 394.5 322.219ZM408.25 318.781 418.563 318.781 418.563 322.219 408.25 322.219ZM422 318.781 427.318 318.781 427.318 322.219 422 322.219ZM427.318 320.5 418.152 306.75 445.652 320.5 418.152 334.25Z"/><path d="M194 202C194 195.373 199.373 190 206 190L413 190C419.627 190 425 195.373 425 202L425 250C425 256.627 419.627 262 413 262L206 262C199.373 262 194 256.627 194 250Z" fill="#FBE5D6" fill-rule="evenodd"/><text fill="#161616" font-family="Consolas,Consolas_MSFontService,sans-serif" font-weight="400" font-size="28" transform="matrix(1 0 0 1 212.968 235)">expectation()</text><path d="M0 0 0.000360892 58.2022" stroke="#000000" stroke-width="3.4375" stroke-linecap="square" stroke-miterlimit="8" stroke-dasharray="10.3125 3.4375" fill="none" fill-rule="evenodd" transform="matrix(-1 0 0 1 310.5 262.5)"/><text font-family="Segoe UI,Segoe UI_MSFontService,sans-serif" font-weight="400" font-size="28" transform="matrix(1 0 0 1 197.264 177)">MC/MB Estimation</text><path d="M848 192.024C848 185.383 853.383 180 860.024 180L965.976 180C972.617 180 978 185.383 978 192.024L978 348.976C978 355.617 972.617 361 965.976 361L860.024 361C853.383 361 848 355.617 848 348.976Z" stroke="#161616" stroke-width="2.29167" stroke-miterlimit="8" fill="none" fill-rule="evenodd"/><path d="M874.5 245.781 884.812 245.781 884.812 249.219 874.5 249.219ZM888.25 245.781 898.562 245.781 898.562 249.219 888.25 249.219ZM902 245.781 912.312 245.781 912.312 249.219 902 249.219ZM915.75 245.781 926.062 245.781 926.062 249.219 915.75 249.219ZM929.5 245.782 934.119 245.782 934.119 249.219 929.5 249.219ZM934.119 247.5 924.953 233.75 952.453 247.5 924.953 261.25Z" fill="#161616"/><text font-family="Segoe UI,Segoe UI_MSFontService,sans-serif" font-weight="400" font-size="28" transform="matrix(1 0 0 1 872.256 224)">Return</text><path d="M874.5 320.781 934.119 320.781 934.119 324.219 874.5 324.219ZM934.119 322.5 924.953 308.75 952.453 322.5 924.953 336.25Z" fill="#161616"/><text font-family="Segoe UI,Segoe UI_MSFontService,sans-serif" font-weight="400" font-size="28" transform="matrix(1 0 0 1 858.793 303)">Dataflow</text><path d="M543.219 356.5 543.219 366.812 539.781 366.812 539.781 356.5ZM543.219 370.25 543.219 380.562 539.781 380.562 539.781 370.25ZM543.219 384 543.219 394.312 539.781 394.312 539.781 384ZM543.219 397.75 543.219 408.062 539.781 408.062 539.781 397.75ZM543.219 411.5 543.219 412.89 539.781 412.89 539.781 411.5ZM541.5 412.89 555.25 403.723 541.5 431.223 527.75 403.723Z"/><rect x="657.5" y="530.5" width="191" height="72.0002" stroke="#161616" stroke-width="4.58333" stroke-miterlimit="8" fill="#FCE8F0"/><text fill="#161616" font-family="Segoe UI,Segoe UI_MSFontService,sans-serif" font-weight="400" font-size="28" transform="matrix(1 0 0 1 703.224 576)">Selector</text><path d="M657 443C657 436.373 662.373 431 669 431L836 431C842.627 431 848 436.373 848 443L848 491C848 497.627 842.627 503 836 503L669 503C662.373 503 657 497.627 657 491Z" fill="#FCE8F0" fill-rule="evenodd"/><text fill="#161616" font-family="Consolas,Consolas_MSFontService,sans-serif" font-weight="400" font-size="28" transform="matrix(1 0 0 1 685.177 477)">.</text><text fill="#161616" font-family="Consolas,Consolas_MSFontService,sans-serif" font-weight="400" font-size="28" transform="matrix(1 0 0 1 700.073 477)">select</text><text fill="#161616" font-family="Consolas,Consolas_MSFontService,sans-serif" font-weight="400" font-size="28" transform="matrix(1 0 0 1 789.448 477)">()</text><path d="M752.5 503.5 752.5 530.193" stroke="#000000" stroke-width="3.4375" stroke-miterlimit="8" fill="none" fill-rule="evenodd"/></g></svg>
