<?xml version="1.0" encoding="UTF-8" standalone="no"?>
<!DOCTYPE svg PUBLIC "-//W3C//DTD SVG 1.1//EN" "http://www.w3.org/Graphics/SVG/1.1/DTD/svg11.dtd">
<svg width="100%" height="100%" viewBox="0 0 710 710" version="1.1" xmlns="http://www.w3.org/2000/svg" xmlns:xlink="http://www.w3.org/1999/xlink" xml:space="preserve" xmlns:serif="http://www.serif.com/" style="fill-rule:evenodd;clip-rule:evenodd;stroke-linecap:round;stroke-linejoin:round;stroke-miterlimit:1.5;">
    <g transform="matrix(1,0,0,1,-1180.6,-2361.7)">
        <g transform="matrix(0.955869,0,0,1.63105,1007.23,1877.52)">
            <path d="M923.277,330.61L923.277,698.196C923.277,716.656 897.703,731.644 866.203,731.644L238.973,731.644C207.472,731.644 181.898,716.656 181.898,698.196L181.898,330.61C181.898,312.149 207.472,297.161 238.973,297.161L866.203,297.161C897.703,297.161 923.277,312.149 923.277,330.61Z" style="fill:rgb(179,205,200);stroke:rgb(174,195,191);stroke-width:0.75px;"/>
        </g>
        <g transform="matrix(1.9,0,0,1.96333,-1563.45,1827.06)">
            <g transform="matrix(0.955691,0,0,0.942479,1197.06,246.289)">
                <g transform="matrix(0.550717,-0,-0,0.540423,258.64,27.6133)">
                    <path d="M531.826,218.93L578.701,234.555L531.826,250.18L531.826,218.93Z"/>
                    <path d="M129.882,234.555L541.201,234.555" style="fill:none;stroke:black;stroke-width:10.42px;stroke-linecap:butt;"/>
                </g>
            </g>
            <g transform="matrix(0.464572,0.464572,-0.656168,0.656168,1519.12,27.3028)">
                <g transform="matrix(0.566452,-0.401053,0.54818,0.388115,183.102,243.76)">
                    <path d="M253.315,223.689C247.318,217.492 237.418,217.33 231.221,223.327C225.024,229.324 224.862,239.224 230.859,245.421C236.856,251.618 246.756,251.78 252.953,245.783C259.15,239.786 259.312,229.886 253.315,223.689Z"/>
                    <path d="M242.087,234.555C268.268,261.609 354.292,350.5 354.292,350.5" style="fill:none;stroke:black;stroke-width:10.42px;"/>
                </g>
            </g>
            <g transform="matrix(-0.708661,-0.708661,0.590551,-0.590551,1837.4,834.696)">
                <g transform="matrix(-0.371345,0.445614,-0.359366,-0.431239,674.189,143.272)">
                    <path d="M230.859,223.689C224.862,229.886 225.024,239.786 231.221,245.783C237.418,251.78 247.318,251.618 253.315,245.421C259.312,239.224 259.15,229.324 252.953,223.327C246.756,217.33 236.856,217.492 230.859,223.689Z"/>
                    <path d="M242.087,234.555L354.292,118.61" style="fill:none;stroke:black;stroke-width:10.42px;"/>
                </g>
            </g>
            <g transform="matrix(-0.708661,-0.708661,0.590551,-0.590551,1896.46,893.751)">
                <g transform="matrix(-0.371345,0.445614,-0.359366,-0.431239,757.522,143.272)">
                    <path d="M455.268,223.689C461.265,217.492 471.165,217.33 477.362,223.327C483.559,229.324 483.721,239.224 477.724,245.421C471.727,251.618 461.827,251.78 455.63,245.783C449.433,239.786 449.271,229.886 455.268,223.689Z"/>
                    <path d="M354.292,350.5L466.496,234.555" style="fill:none;stroke:black;stroke-width:10.42px;"/>
                </g>
            </g>
            <g transform="matrix(0.464572,0.464572,-0.656168,0.656168,1578.18,-31.7524)">
                <g transform="matrix(0.566452,-0.401053,0.54818,0.388115,183.102,333.76)">
                    <path d="M477.724,223.689C483.721,229.886 483.559,239.786 477.362,245.783C471.165,251.78 461.265,251.618 455.268,245.421C449.271,239.224 449.433,229.324 455.63,223.327C461.827,217.33 471.727,217.492 477.724,223.689Z"/>
                    <path d="M354.292,118.61C380.473,145.664 466.496,234.555 466.496,234.555" style="fill:none;stroke:black;stroke-width:10.42px;"/>
                </g>
            </g>
        </g>
        <g transform="matrix(0.463345,0,0,0.463345,1258.37,2474.67)">
            <g transform="matrix(323.733,0,0,323.733,186.897,976.552)">
                <path d="M0.15,-0L0.15,-0.36C0.15,-0.436 0.215,-0.473 0.285,-0.473C0.369,-0.473 0.413,-0.423 0.413,-0.319L0.413,-0L0.47,-0L0.47,-0.359C0.47,-0.435 0.533,-0.473 0.604,-0.473C0.69,-0.473 0.733,-0.422 0.733,-0.319L0.733,-0L0.79,-0L0.79,-0.329C0.79,-0.454 0.729,-0.524 0.62,-0.524C0.529,-0.524 0.478,-0.476 0.459,-0.416L0.456,-0.416C0.431,-0.49 0.371,-0.524 0.298,-0.524C0.214,-0.524 0.174,-0.481 0.153,-0.431L0.15,-0.431L0.15,-0.512L0.093,-0.512L0.093,-0L0.15,-0Z" style="fill:rgb(35,31,32);fill-rule:nonzero;"/>
            </g>
            <g transform="matrix(323.733,0,0,323.733,493.407,976.552)">
                <path d="M0.093,-0L0.15,-0L0.15,-0.082L0.153,-0.082C0.181,-0.025 0.231,0.012 0.309,0.012C0.44,0.012 0.52,-0.087 0.52,-0.256C0.52,-0.425 0.44,-0.524 0.309,-0.524C0.231,-0.524 0.178,-0.487 0.153,-0.43L0.15,-0.43L0.15,-0.74L0.093,-0.74L0.093,-0ZM0.296,-0.039C0.217,-0.039 0.15,-0.084 0.15,-0.156L0.15,-0.359C0.15,-0.426 0.217,-0.473 0.296,-0.473C0.398,-0.473 0.459,-0.402 0.459,-0.292L0.459,-0.22C0.459,-0.11 0.398,-0.039 0.296,-0.039Z" style="fill:rgb(35,31,32);fill-rule:nonzero;"/>
            </g>
            <g transform="matrix(323.733,0,0,323.733,702.15,976.552)">
                <path d="M0.15,-0L0.15,-0.35C0.15,-0.416 0.211,-0.456 0.296,-0.456L0.341,-0.456L0.341,-0.512L0.307,-0.512C0.219,-0.512 0.174,-0.468 0.154,-0.42L0.15,-0.42L0.15,-0.512L0.093,-0.512L0.093,-0L0.15,-0Z" style="fill:rgb(35,31,32);fill-rule:nonzero;"/>
            </g>
            <g transform="matrix(323.733,0,0,323.733,840.643,976.552)">
                <path d="M0.238,0.012C0.351,0.012 0.42,-0.045 0.42,-0.14C0.42,-0.222 0.371,-0.267 0.267,-0.283L0.226,-0.289C0.153,-0.301 0.116,-0.324 0.116,-0.383C0.116,-0.441 0.159,-0.475 0.232,-0.475C0.303,-0.475 0.345,-0.442 0.372,-0.41L0.41,-0.445C0.372,-0.491 0.32,-0.524 0.235,-0.524C0.136,-0.524 0.061,-0.476 0.061,-0.38C0.061,-0.288 0.125,-0.251 0.218,-0.237L0.26,-0.23C0.334,-0.219 0.365,-0.188 0.365,-0.134C0.365,-0.072 0.32,-0.037 0.242,-0.037C0.174,-0.037 0.125,-0.064 0.083,-0.119L0.041,-0.086C0.087,-0.023 0.149,0.012 0.238,0.012Z" style="fill:rgb(35,31,32);fill-rule:nonzero;"/>
            </g>
        </g>
        <g transform="matrix(2.69291,0,0,2.3189,188.437,2132.48)">
            <g transform="matrix(0.371345,-0,-0,0.431239,368.436,98.8506)">
                <path d="M369.917,118.61C369.917,109.987 362.915,102.985 354.292,102.985C345.668,102.985 338.667,109.987 338.667,118.61C338.667,127.234 345.668,134.235 354.292,134.235C362.915,134.235 369.917,127.234 369.917,118.61Z"/>
                <path d="M369.917,350.5C369.917,359.124 362.915,366.125 354.292,366.125C345.668,366.125 338.667,359.124 338.667,350.5C338.667,341.876 345.668,334.875 354.292,334.875C362.915,334.875 369.917,341.876 369.917,350.5Z"/>
                <path d="M354.292,118.61L354.292,350.5" style="fill:none;stroke:black;stroke-width:10.42px;"/>
            </g>
        </g>
    </g>
</svg>
